<svg height="800" viewBox="0 0 54 54" width="800" xmlns="http://www.w3.org/2000/svg"><path d="m53 10.5h-29.465l-3.703-5.555c-.186-.278-.498-.445-.832-.445h-18c-.552 0-1 .447-1 1v6 4 29.003c0 2.756 2.24 4.997 4.994 4.997h44.012c2.754 0 4.994-2.241 4.994-4.997v-29.003-4c0-.553-.448-1-1-1zm-1 4h-50v-2h21 29zm-50-8h16.465l2.667 4h-19.132zm50 38.003c0 1.652-1.343 2.997-2.994 2.997h-44.012c-1.651 0-2.994-1.345-2.994-2.997v-28.003h50z"/><path d="m16 36.5c1.124 0 2.136-.469 2.864-1.217l10.172 4.865c-.011.118-.036.231-.036.352 0 2.206 1.794 4 4 4s4-1.794 4-4c0-1.474-.81-2.75-2-3.444l.902-7.668c1.771-.411 3.098-1.993 3.098-3.888 0-2.206-1.794-4-4-4-2.139 0-3.876 1.691-3.98 3.805l-11.991 4.612c-.734-.86-1.812-1.417-3.029-1.417-2.206 0-4 1.794-4 4s1.794 4 4 4zm17 6c-1.103 0-2-.897-2-2s.897-2 2-2 2 .897 2 2-.897 2-2 2zm2-19c1.103 0 2 .897 2 2s-.897 2-2 2-2-.897-2-2 .897-2 2-2zm-3.56 3.787c.496.984 1.38 1.727 2.456 2.039l-.845 7.18c-.017 0-.034-.005-.051-.005-1.37 0-2.58.694-3.301 1.747l-9.852-4.712c.09-.333.153-.676.153-1.036 0-.268-.029-.529-.079-.782zm-15.44 3.213c1.103 0 2 .897 2 2 0 .262-.054.512-.146.742-.104.088-.193.196-.256.327-.027.057-.028.117-.044.176-.367.456-.924.755-1.554.755-1.103 0-2-.897-2-2s.897-2 2-2z"/></svg>